<svg width="42" height="49" viewBox="0 0 42 49" fill="none" xmlns="http://www.w3.org/2000/svg">
<path d="M34.6364 4.77269C37.0678 3.80861 39.0698 2.104 40.2059 0.628239C40.2773 0.535455 40.4444 0.620243 40.4061 0.730909C38.6213 5.89302 35.8216 8.44059 32.692 10.2524C29.3334 12.1969 27.5658 11.1363 23.1466 12.0201C17.1187 13.2257 13.2824 16.8723 11.48 20.8584C10.0718 23.9727 9.41151 26.9708 10.4194 30.2271C12.7174 37.6512 18.7274 40.4795 24.384 41.5401C29.9092 42.5761 37.2897 40.7449 40.7594 37.694C40.8335 37.6288 40.9404 37.695 40.9062 37.7875C39.6634 41.1471 29.9789 48.5997 22.6163 48.2572C15.0153 47.9037 8.65175 44.7219 3.70229 37.2977C-0.257279 31.3584 0.99187 23.1564 2.11139 19.7978C5.64672 11.8433 9.53558 9.72215 12.8941 7.60095C15.5164 5.94481 21.1514 4.67314 26.5052 5.30299C29.5102 5.65652 31.8503 5.87742 34.6364 4.77269Z" fill="#0547D6" stroke="#0547D6"/>
<path d="M23.5726 16.7332C21.6155 15.6695 19.2429 17.4202 18.0823 18.6492C18.0128 18.7228 17.8905 18.6629 17.9115 18.564C18.0532 17.8978 18.423 16.45 19.081 15.7322C20.6719 13.9967 23.4974 13.3964 26.5051 13.611C28.6826 13.7664 30.162 13.9449 31.8081 15.3787C32.8889 16.32 33.5234 17.5712 33.8852 18.4517C33.9087 18.5087 33.875 18.5725 33.8151 18.5871C32.2395 18.9727 30.2142 20.1866 28.8031 22.0958C26.3382 25.4308 25.7846 29.3841 28.2728 32.7018C30.2794 35.3772 32.4968 35.2054 33.7281 34.5806C33.8061 34.541 33.8975 34.6078 33.8744 34.6921C33.6158 35.6373 32.8055 37.5764 31.4546 38.7118C28.8604 40.8924 25.19 40.4194 22.2628 38.7118C18.0204 36.2371 17.656 33.0478 17.4901 28.6362C17.2965 23.4893 21.6182 19.1458 23.6 16.8809C23.641 16.8342 23.6273 16.7629 23.5726 16.7332Z" fill="#0547D6" stroke="#0547D6"/>
</svg>
